<?xml version="1.0" standalone="no"?>
<!DOCTYPE svg PUBLIC "-//W3C//DTD SVG 20010904//EN"
 "http://www.w3.org/TR/2001/REC-SVG-20010904/DTD/svg10.dtd">
<svg version="1.0" xmlns="http://www.w3.org/2000/svg"
 width="512.000000pt" height="512.000000pt" viewBox="0 0 512.000000 512.000000"
 preserveAspectRatio="xMidYMid meet">
<metadata>
Created by potrace 1.11, written by Peter Selinger 2001-2013
</metadata>
<g transform="translate(0.000000,512.000000) scale(0.100000,-0.100000)"
fill="#000000" stroke="none">
<path d="M2115 2962 c-197 -609 -407 -1253 -465 -1432 l-106 -325 -213 392
-213 393 -28 -23 c-68 -53 -359 -313 -359 -320 -2 -16 74 -107 86 -103 7 3 61
37 119 77 99 66 108 70 120 54 7 -10 131 -233 275 -496 144 -264 264 -479 268
-479 4 0 241 712 527 1583 l520 1582 972 3 972 2 0 100 0 100 -1057 0 -1058 0
-360 -1108z"/>
</g>
</svg>
